<svg width="30" height="30" viewBox="0 0 30 30" fill="none" xmlns="http://www.w3.org/2000/svg">
<path d="M29.4352 22.3231C26.5526 26.9128 21.173 30 15.0121 30C8.64134 30 3.10608 26.6991 0.303178 21.8492C-0.174868 21.1453 0.0554758 20.8151 0.0554758 20.8151C0.265842 20.3588 1.23545 20.3966 1.23545 20.3966H28.7172C28.7172 20.3966 29.605 20.395 29.769 20.7865C29.769 20.7865 30.1928 21.3959 29.4352 22.3231Z" fill="#F8AF0C"/>
<path d="M18.4115 18.6668C14.2689 19.684 9.66793 18.6932 6.41869 15.6937C3.05878 12.5923 2.02541 8.15656 3.31806 4.2342C3.4681 3.63023 3.77825 3.56824 3.77825 3.56824C4.1499 3.42993 4.63968 3.92199 4.63968 3.92199L18.7945 16.9883L19.1334 17.3012C19.1334 17.3012 19.6026 17.7325 19.4654 18.0189C19.4654 18.0189 19.3408 18.5466 18.4115 18.6668Z" fill="#22A45D"/>
<path d="M18.4626 15.2384C15.6742 13.7461 13.7986 10.9612 13.7986 7.77175C13.7986 4.47364 15.8041 1.60809 18.7506 0.157051C19.1782 -0.0904827 19.3789 0.0288029 19.3789 0.0288029C19.6561 0.137652 19.6331 0.639675 19.6331 0.639675V14.8667C19.6331 14.8667 19.634 15.3264 19.3962 15.4112C19.3962 15.4112 19.026 15.6307 18.4626 15.2384Z" fill="#FF7058"/>
<path d="M20.6494 16.1122C20.0204 13.9295 20.633 11.5054 22.4875 9.79353C24.4053 8.02333 27.1479 7.47887 29.5732 8.16001C29.9465 8.23902 29.9849 8.40237 29.9849 8.40237C30.0703 8.5982 29.7662 8.85627 29.7662 8.85627L21.6871 16.3139L21.4937 16.4925C21.4937 16.4925 21.2269 16.7397 21.05 16.6674C21.05 16.6674 20.7236 16.6017 20.6494 16.1122Z" fill="#FFD15C"/>
</svg>
