<?xml version="1.0" encoding="utf-8"?>
<!DOCTYPE svg PUBLIC "-//W3C//DTD SVG 1.0//EN" "http://www.w3.org/TR/2001/REC-SVG-20010904/DTD/svg10.dtd">
<svg version="1.0" xmlns="http://www.w3.org/2000/svg" width="438px" height="438px" viewBox="0 0 438 438" preserveAspectRatio="xMidYMid meet">
 <g fill="#046640">
  <path d="M128.7 230.2 c-9.1 -8.7 -20.9 -19.4 -38.2 -34.7 -4.9 -4.4 -14.6 -13.1 -21.5 -19.5 -6.9 -6.4 -17.4 -15.8 -23.5 -21 -6 -5.2 -14.4 -12.7 -18.5 -16.6 -4.1 -3.9 -11.1 -10.2 -15.5 -13.9 -8.2 -7.1 -9.5 -8.8 -8.8 -11.6 0.6 -2.1 2.6 -2.5 23.1 -4 30.2 -2.4 63 1.8 92.2 11.8 8.9 3 26.7 11.3 31 14.3 3 2.1 3.2 2.1 5.1 0.5 1.8 -1.8 1.9 -1.7 1.9 1.1 0 1.7 -2 8.8 -4.4 16 -8 23.9 -9.9 33.9 -10 50.9 0 11.3 0.4 16.5 1.7 21.1 0.9 3.4 1.7 8 1.7 10.3 0 4 -0.1 4.1 -3.5 4.1 -3.1 0 -4.8 -1.1 -12.8 -8.8z"/>
 </g>
 <g fill="#c01d06">
  <path d="M216 134.6 c0 -127.7 -0.7 -118.5 8.6 -108.2 9.6 10.5 22.8 31.4 35.4 56.1 8.4 16.5 24 51 24 53.3 0 1.8 2 2.5 3.6 1.1 0.8 -0.6 1.6 -1 1.8 -0.8 0.9 0.9 6 18.3 9.2 31.4 3.1 12.2 3.6 16.1 4.1 30.5 0.6 18.6 -0.5 30.1 -4.1 40.6 l-2.3 6.9 -40.1 0.3 -40.2 0.2 0 -111.4z"/>
 </g>
 <g fill="#01a65e">
  <path d="M38 245.1 c0 -0.5 0.5 -1.1 1.2 -1.3 0.8 -0.3 0.4 -1.9 -1.4 -4.9 -10.1 -17.7 -12.4 -22.1 -16.2 -31.2 -8.2 -19.5 -14.4 -43.8 -17.5 -68.2 -1.2 -9.3 -1.7 -25.3 -0.8 -26.2 0.8 -0.7 11.5 8 24.3 19.9 5.5 5.1 15 13.6 21 18.8 6 5.2 16.5 14.6 23.4 21 6.9 6.4 16.5 15.1 21.5 19.5 17.6 15.7 38 34.3 40.5 37 1.4 1.5 3.8 3.6 5.4 4.8 l2.9 2 -0.5 -2.6 c-0.3 -1.5 -0.1 -2.7 0.4 -2.7 1.8 0 4.8 6.6 4.8 10.8 l0 4.2 -54.5 0 c-32.4 0 -54.5 -0.4 -54.5 -0.9z"/>
 </g>
 <g fill="#fb5c01">
  <path d="M141 244.5 c0 -0.8 0.7 -1.5 1.6 -1.5 1.2 0 1.5 -0.6 1 -2.2 -6.5 -21.5 -7.2 -45.8 -2.1 -66.8 2.9 -11.9 9.9 -33.7 12.6 -39 0.9 -1.9 3.9 -8.7 6.5 -15 6.2 -15.1 24.2 -50.5 33 -65 7.1 -11.7 19.5 -29 23.3 -32.4 l2.1 -1.9 0.1 92.4 c0 50.8 0 100.8 -0.1 111.2 -0.1 16.3 0.1 18.7 1.4 18.7 0.9 0 1.6 0.7 1.6 1.5 0 1.3 -5.2 1.5 -40.5 1.5 -35.3 0 -40.5 -0.2 -40.5 -1.5z"/>
 </g>
 <g fill="#cf7c24">
  <path d="M187.1 414.4 c-11.4 -2.4 -25 -8.5 -36.6 -16.5 -10.4 -7.2 -11.5 -8.3 -11.5 -11.8 l0 -3.1 82.5 0 c72.9 0 82.4 0.2 81.9 1.5 -0.5 1.1 0.1 1.5 2.5 1.5 l3.1 0 0 14.5 0 14.5 -27.7 0.1 c-15.3 0 -41.5 0.1 -58.2 0.2 -19.8 0.1 -32.4 -0.2 -36 -0.9z"/>
 </g>
 <g fill="#fdbd05">
  <path d="M295.4 236.8 c0.4 -1.3 1.4 -5 2.4 -8.3 1.3 -4.8 1.7 -9.9 1.6 -25 -0.1 -18.9 -0.1 -19.1 -4.2 -35 -2.3 -8.8 -5.3 -19.3 -6.6 -23.3 l-2.5 -7.3 4.7 -3 c28.6 -18.2 80.5 -29.1 123.7 -26 9.2 0.7 17.8 1.6 19.1 2.1 3.7 1.5 3.3 6.4 -0.8 9.8 -1.8 1.5 -6.6 5.6 -10.5 9.2 -4 3.6 -10.7 9.4 -14.9 13 -4.2 3.6 -10.4 9.2 -13.8 12.5 -3.4 3.3 -12 11 -19.1 17 -7 6.1 -16.4 14.3 -20.7 18.4 -4.3 4 -9.4 8.5 -11.3 10 -1.9 1.4 -10.3 8.9 -18.7 16.5 -8.4 7.7 -17.2 15.7 -19.5 17.8 -5 4.5 -10 5.4 -8.9 1.6z"/>
 </g>
 <g fill="#f8a84e">
  <path d="M129.7 415.3 c-0.4 -0.3 -0.7 -6.8 -0.7 -14.4 0 -13.3 0.1 -13.7 2.3 -14.3 1.2 -0.3 3.3 -0.6 4.6 -0.6 2 0 2.1 -0.2 1.1 -1.5 -1.1 -1.3 -0.6 -1.5 3.2 -1.5 2.4 0 5.3 0.7 6.4 1.5 1.8 1.4 1.7 1.4 -1.4 1.5 l-3.3 0 3.3 2.8 c10.2 8.8 26.9 17.6 40.7 21.4 6.2 1.8 8.1 2.7 8.1 4.1 0 1.6 -2.2 1.7 -31.8 1.7 -17.5 0 -32.2 -0.3 -32.5 -0.7z"/>
 </g>
 <g fill="#e7a357">
  <path d="M189.6 413.5 c-1.7 -2.6 -1.7 -2.6 1.1 -2 1.5 0.3 4.8 1.1 7.3 1.8 4.1 1 4.3 1.2 2 1.8 -5.4 1.5 -8.7 1 -10.4 -1.6z"/>
  <path d="M204 384 c0 -1.7 0.7 -2 4.3 -2 11.2 0 35.8 -6 49 -11.9 14.6 -6.6 34 -21.9 42.8 -33.7 17 -23 25.5 -48.9 26.6 -81.1 l0.6 -15.3 35.8 0 c35.3 0 35.9 0 35.9 2 0 1.7 0.6 2 3.8 1.8 2 -0.1 5.6 -0.1 8 0 l4.3 0.2 -0.6 4.8 c-0.9 6.5 -5 21.6 -8.1 29.8 -14.9 39.6 -44.7 73.8 -83.6 96.1 -5 2.9 -11.3 6 -13.8 7 -2.5 0.9 -5 2.2 -5.6 3 -0.9 1 -10.4 1.3 -50.3 1.3 -48.4 0 -49.1 0 -49.1 -2z"/>
 </g>
 <g fill="#f8b66d">
  <path d="M129.7 415.3 c-1.5 -1.4 -0.7 -8 1.2 -9.7 2.5 -2.3 3.4 -0.7 1.5 2.9 -1.3 2.6 -1.3 3 0.8 5.2 l2.1 2.3 -2.5 0 c-1.3 0 -2.8 -0.3 -3.1 -0.7z"/>
 </g>
 <g fill="#fe8f02">
  <path d="M290 244.6 c0 -0.7 0.9 -1.6 1.9 -1.9 1.1 -0.2 2.2 -1.7 2.5 -3.4 0.4 -1.7 1.5 -3.4 2.6 -3.9 1 -0.5 10.2 -8.5 20.5 -17.9 10.2 -9.3 20.2 -18.2 22 -19.6 1.9 -1.5 7 -6 11.3 -10 4.3 -4.1 13.7 -12.3 20.7 -18.4 7.1 -6 15.7 -13.7 19.1 -17 3.4 -3.3 9.5 -8.8 13.6 -12.3 4 -3.4 12 -10.5 17.8 -15.7 5.8 -5.3 11.2 -9.4 12 -9.2 1.2 0.2 1.4 1.7 1.2 7.7 -0.9 25.6 -7.8 57.7 -17.6 81.5 -5.4 13.3 -7 16.5 -13.5 27.8 -2.8 4.9 -5.1 9.3 -5.1 9.8 0 0.5 -14.1 0.9 -34.5 0.9 -30 0 -34.5 0.2 -34.5 1.5 0 1.3 -2.9 1.5 -20 1.5 -16.4 0 -20 -0.3 -20 -1.4z"/>
 </g>
 <g fill="#fed9a3">
  <path d="M137.5 385.2 c-0.5 -0.5 -2.8 -1.5 -5 -2.2 -11.5 -3.7 -37.6 -20.1 -51.9 -32.7 -22.2 -19.6 -41.6 -49 -51 -77.3 -3.8 -11.7 -7.3 -27.7 -6.2 -28.8 0.4 -0.4 69.5 -0.8 153.6 -1 l152.8 -0.3 0.4 2.8 c0.2 1.5 0 8.2 -0.3 14.8 -1.8 31.2 -10.5 56.8 -26.8 78.9 -8.8 11.8 -28.2 27.1 -42.8 33.7 -9.2 4.1 -20.8 7.6 -33.6 10 -9.9 2 -15.5 2.2 -49.7 2.6 -23.8 0.3 -38.9 0.1 -39.5 -0.5z"/>
 </g>
</svg>